<?xml version="1.0" standalone="no"?>
<!DOCTYPE svg PUBLIC "-//W3C//DTD SVG 20010904//EN" "http://www.w3.org/TR/2001/REC-SVG-20010904/DTD/svg10.dtd">
<svg version="1.0" xmlns="http://www.w3.org/2000/svg" width="98px" height="98px" viewBox="0 0 450.000000 183.000000" preserveAspectRatio="xMidYMid meet">

  <g transform="translate(-100.000000,403.000000) scale(0.300000,-0.300000)"
  fill="#eee" stroke="none">
    <path d="M1112 1184 l-152 -184 -170 0 c-104 0 -170 -4 -170 -10 0 -6 64 -11 160 -12 l159 -3 -144 -175 c-129 -156 -165 -209 -136 -198 5 2 68 75 141 163 198 241 167 215 261 215 72 0 80 -2 75 -17 -38 -126 -97 -315 -102 -327 -4 -10 -1 -16 8 -16 7 0 53 61 102 135 48 74 90 135 92 135 2 0 1 -13 -2 -30 -11 -50 20 -50 72 1 24 24 44 41 44 39 0 -3 -7 -26 -15 -53 -25 -83 -1 -100 57 -39 44 45 128 174 121 185 -8 13 -32 -13 -95 -105 -33 -49 -63 -86 -66 -84 -3 3 10 46 28 96 17 50 29 94 26 97 -4 4 -36 -26 -72 -66 -37 -39 -69 -70 -72 -67 -2 3 6 33 18 66 23 61 21 86 -4 59 -8 -8 -53 -72 -100 -144 -47 -71 -86 -126 -86 -122 0 5 17 63 37 129 27 87 43 122 55 126 21 5 24 18 6 24 -9 3 3 54 40 178 30 95 50 176 45 181 -4 4 -77 -75 -161 -177z m77 -48 l-43 -136 -73 0 c-59 0 -72 3 -66 13 17 28 217 267 220 263 3 -2 -15 -65 -38 -140z"/>
  </g>
</svg>
